<svg width="18" height="18" viewBox="0 0 18 18" fill="none" xmlns="http://www.w3.org/2000/svg">
<path fill-rule="evenodd" clip-rule="evenodd" d="M11 5.5H7V16.5H11V5.5ZM5.5 4V18H12.5V4H5.5Z" fill="white"/>
<path fill-rule="evenodd" clip-rule="evenodd" d="M1.5 5.5V16.5H16.5V5.5H1.5ZM0.5 4C0.223858 4 0 4.22386 0 4.5V17.5C0 17.7761 0.223858 18 0.5 18H17.5C17.7761 18 18 17.7761 18 17.5V4.5C18 4.22386 17.7761 4 17.5 4H0.5Z" fill="white"/>
<path fill-rule="evenodd" clip-rule="evenodd" d="M7 1.5V4H11V1.5H7ZM6 0C5.72386 0 5.5 0.223857 5.5 0.5V5.5H12.5V0.5C12.5 0.223858 12.2761 0 12 0H6Z" fill="white"/>
</svg>
