<svg width="16" height="14" viewBox="0 0 16 14" fill="none" xmlns="http://www.w3.org/2000/svg">
<path fill-rule="evenodd" clip-rule="evenodd" d="M0.976309 9.30981C1.60143 8.68469 2.44927 8.3335 3.33333 8.3335H8.66665C9.5507 8.3335 10.3985 8.68469 11.0237 9.30981C11.6488 9.93493 12 10.7828 12 11.6668V13.0002C12 13.3683 11.7015 13.6668 11.3333 13.6668C10.9651 13.6668 10.6666 13.3683 10.6666 13.0002V11.6668C10.6666 11.1364 10.4559 10.6277 10.0809 10.2526C9.70578 9.87754 9.19708 9.66683 8.66665 9.66683H3.33333C2.8029 9.66683 2.29419 9.87754 1.91912 10.2526C1.54405 10.6277 1.33333 11.1364 1.33333 11.6668V13.0002C1.33333 13.3683 1.03486 13.6668 0.666667 13.6668C0.298477 13.6668 0 13.3683 0 13.0002V11.6668C0 10.7828 0.351189 9.93493 0.976309 9.30981Z" fill="white"/>
<path fill-rule="evenodd" clip-rule="evenodd" d="M6.00002 1.66671C4.89545 1.66671 4.00002 2.56214 4.00002 3.6667C4.00002 4.77127 4.89545 5.6667 6.00002 5.6667C7.10458 5.6667 8.00001 4.77127 8.00001 3.6667C8.00001 2.56214 7.10458 1.66671 6.00002 1.66671ZM2.66669 3.6667C2.66669 1.82576 4.15907 0.333374 6.00002 0.333374C7.84096 0.333374 9.33334 1.82576 9.33334 3.6667C9.33334 5.50765 7.84096 7.00003 6.00002 7.00003C4.15907 7.00003 2.66669 5.50765 2.66669 3.6667Z" fill="white"/>
<path fill-rule="evenodd" clip-rule="evenodd" d="M12.6878 8.91996C12.7799 8.56346 13.1435 8.34908 13.5 8.44113C14.2151 8.62577 14.8486 9.04268 15.3011 9.62639C15.7536 10.2101 15.9994 10.9276 16 11.6661L16 13C16 13.3681 15.7015 13.6666 15.3333 13.6666C14.9651 13.6666 14.6666 13.3681 14.6666 13V11.6669C14.6663 11.2238 14.5188 10.7934 14.2473 10.4433C13.9758 10.0931 13.5957 9.84291 13.1667 9.73213C12.8102 9.64008 12.5958 9.27646 12.6878 8.91996Z" fill="#36C185"/>
<path fill-rule="evenodd" clip-rule="evenodd" d="M10.0208 0.921512C10.1122 0.564828 10.4753 0.349712 10.832 0.441038C11.549 0.624622 12.1845 1.04162 12.6384 1.62629C13.0922 2.21097 13.3385 2.93006 13.3385 3.6702C13.3385 4.41034 13.0922 5.12943 12.6384 5.7141C12.1845 6.29878 11.549 6.71578 10.832 6.89936C10.4753 6.99069 10.1122 6.77557 10.0208 6.41889C9.9295 6.0622 10.1446 5.69902 10.5013 5.60769C10.9315 5.49754 11.3128 5.24734 11.5851 4.89654C11.8574 4.54574 12.0052 4.11428 12.0052 3.6702C12.0052 3.22612 11.8574 2.79466 11.5851 2.44386C11.3128 2.09305 10.9315 1.84285 10.5013 1.7327C10.1446 1.64138 9.9295 1.2782 10.0208 0.921512Z" fill="#36C185"/>
</svg>
