<svg width="16" height="14" viewBox="0 0 16 14" fill="none" xmlns="http://www.w3.org/2000/svg">
<path d="M6.15111 5.76268H14.6844C14.7627 5.76268 14.8267 5.69904 14.8267 5.62127V4.63137C14.8267 4.55359 14.7627 4.48995 14.6844 4.48995H6.15111C6.07289 4.48995 6.00889 4.55359 6.00889 4.63137V5.62127C6.00889 5.69904 6.07289 5.76268 6.15111 5.76268ZM6.00889 9.36874C6.00889 9.44652 6.07289 9.51016 6.15111 9.51016H14.6844C14.7627 9.51016 14.8267 9.44652 14.8267 9.36874V8.37884C14.8267 8.30106 14.7627 8.23743 14.6844 8.23743H6.15111C6.07289 8.23743 6.00889 8.30106 6.00889 8.37884V9.36874ZM14.9689 0.777832H1.03111C0.952885 0.777832 0.888885 0.841468 0.888885 0.919246V1.90915C0.888885 1.98692 0.952885 2.05056 1.03111 2.05056H14.9689C15.0471 2.05056 15.1111 1.98692 15.1111 1.90915V0.919246C15.1111 0.841468 15.0471 0.777832 14.9689 0.777832ZM14.9689 11.9495H1.03111C0.952885 11.9495 0.888885 12.0132 0.888885 12.091V13.0809C0.888885 13.1586 0.952885 13.2223 1.03111 13.2223H14.9689C15.0471 13.2223 15.1111 13.1586 15.1111 13.0809V12.091C15.1111 12.0132 15.0471 11.9495 14.9689 11.9495Z" fill="#262626"/>
</svg>
