<svg width="16" height="14" viewBox="0 0 16 14" fill="none" xmlns="http://www.w3.org/2000/svg">
<path d="M15.2222 0.888916H0.777777C0.470485 0.888916 0.222221 1.13718 0.222221 1.44447V12.5556C0.222221 12.8629 0.470485 13.1111 0.777777 13.1111H15.2222C15.5295 13.1111 15.7778 12.8629 15.7778 12.5556V1.44447C15.7778 1.13718 15.5295 0.888916 15.2222 0.888916ZM14.5278 2.81253V11.8611H1.47222V2.81253L0.993055 2.43926L1.67535 1.56253L2.4184 2.14065H13.5833L14.3264 1.56253L15.0087 2.43926L14.5278 2.81253ZM13.5833 2.13892L8 6.47919L2.41667 2.13892L1.67361 1.56079L0.991319 2.43753L1.47049 2.81079L7.40104 7.4219C7.5716 7.5544 7.78142 7.62633 7.9974 7.62633C8.21337 7.62633 8.4232 7.5544 8.59375 7.4219L14.5278 2.81253L15.0069 2.43926L14.3247 1.56253L13.5833 2.13892Z" fill="#36C185"/>
</svg>
