<svg width="16" height="16" viewBox="0 0 16 16" fill="none" xmlns="http://www.w3.org/2000/svg">
<path fill-rule="evenodd" clip-rule="evenodd" d="M9.77778 4.88888H6.22222V14.6667H9.77778V4.88888ZM4.88889 3.55554V16H11.1111V3.55554H4.88889Z" fill="#36C185"/>
<path fill-rule="evenodd" clip-rule="evenodd" d="M1.33333 4.88888V14.6667H14.6667V4.88888H1.33333ZM0.444444 3.55554C0.198985 3.55554 0 3.75453 0 3.99999V15.5555C0 15.801 0.198985 16 0.444445 16H15.5556C15.801 16 16 15.801 16 15.5555V3.99999C16 3.75453 15.801 3.55554 15.5556 3.55554H0.444444Z" fill="white"/>
<path fill-rule="evenodd" clip-rule="evenodd" d="M6.22222 1.33333V3.55556H9.77778V1.33333H6.22222ZM5.33333 0C5.08787 0 4.88889 0.198984 4.88889 0.444444V4.88889H11.1111V0.444444C11.1111 0.198985 10.9121 0 10.6667 0H5.33333Z" fill="white"/>
</svg>
