<svg width="24" height="24" viewBox="0 0 24 24" fill="none" xmlns="http://www.w3.org/2000/svg">
<path d="M19.1184 0H4.24854C1.90122 0 0 1.83736 0 4.10301V16.0044C0 18.2701 1.90122 20.1075 4.24854 20.1075H4.6734C5.25969 20.1075 5.73553 20.5668 5.73553 21.1337V23.4863C5.73553 23.927 6.27509 24.1629 6.6171 23.8711L10.4365 20.6206C10.8253 20.2895 11.3245 20.1075 11.8407 20.1075H19.1184C21.4658 20.1075 23.367 18.2701 23.367 16.0044V4.10301C23.367 1.83736 21.4658 0 19.1184 0ZM12.958 15.2327H10.4089C10.4089 14.8416 10.5959 14.4919 10.8869 14.2643C10.9867 14.1857 11.0462 14.0678 11.0462 13.9436V6.17625C11.0462 6.0521 10.9867 5.93416 10.8869 5.85554C10.5959 5.62794 10.4089 5.28033 10.4089 4.8872H12.958C12.958 5.27826 12.7711 5.62794 12.4801 5.85554C12.3802 5.93416 12.3208 6.0521 12.3208 6.17625V13.9436C12.3208 14.0678 12.3802 14.1857 12.4801 14.2643C12.7711 14.4919 12.958 14.8395 12.958 15.2327Z" fill="white"/>
</svg>
