<svg width="168" height="24" viewBox="0 0 168 24" fill="none" xmlns="http://www.w3.org/2000/svg">
<path d="M19.1184 0H4.24854C1.90122 0 0 1.83736 0 4.10301V16.0044C0 18.2701 1.90122 20.1075 4.24854 20.1075H4.6734C5.25969 20.1075 5.73553 20.5668 5.73553 21.1337V23.4863C5.73553 23.927 6.27509 24.1629 6.6171 23.8711L10.4365 20.6206C10.8253 20.2895 11.3245 20.1075 11.8407 20.1075H19.1184C21.4658 20.1075 23.367 18.2701 23.367 16.0044V4.10301C23.367 1.83736 21.4658 0 19.1184 0ZM12.958 15.2327H10.4089C10.4089 14.8416 10.5959 14.4919 10.8869 14.2643C10.9867 14.1857 11.0462 14.0678 11.0462 13.9436V6.17625C11.0462 6.0521 10.9867 5.93416 10.8869 5.85554C10.5959 5.62794 10.4089 5.28033 10.4089 4.8872H12.958C12.958 5.27826 12.7711 5.62794 12.4801 5.85554C12.3802 5.93416 12.3208 6.0521 12.3208 6.17625V13.9436C12.3208 14.0678 12.3802 14.1857 12.4801 14.2643C12.7711 14.4919 12.958 14.8395 12.958 15.2327Z" fill="white"/>
<path d="M30.6755 5.07265V14.5228H29.1201V5.07265H30.6755ZM41.757 5.07265H43.3123V14.5228H42.1251L36.6001 7.78553V14.5228H35.0447V5.07265H36.2462L41.757 11.8235V5.07265ZM54.2112 5.07265V6.44954H51.5828V14.5228H50.0275V6.44954H47.3991V5.07265H54.2112ZM59.8533 13.1459H64.3338V14.5228H58.3008V5.07265H64.2083V6.44954H59.8561V9.09699H63.2066V10.4466H59.8561V13.1459H59.8533ZM75.9804 14.5228H74.3138L71.9822 11.2291H70.0473V14.5228H68.4919V5.07265H71.8138C74.0312 5.07265 75.3897 6.36774 75.3897 8.19178C75.3897 9.51414 74.6676 10.5284 73.4262 10.9728L75.9833 14.5228H75.9804ZM70.0444 6.44954V9.93403H71.7396C72.9981 9.93403 73.8315 9.36691 73.8315 8.19178C73.8315 7.01665 72.9981 6.44954 71.7396 6.44954H70.0444ZM87.881 5.07265H89.5334L85.1242 14.5228H83.7686L79.3594 5.07265H81.0118L84.445 12.6469L87.8781 5.07265H87.881ZM94.8929 5.07265V14.5228H93.3376V5.07265H94.8929ZM100.818 13.1459H105.298V14.5228H99.265V5.07265H105.173V6.44954H100.82V9.09699H104.171V10.4466H100.82V13.1459H100.818ZM122.709 5.07265L119.487 14.5228H118.414L115.872 7.74463L113.329 14.5228H112.256L109.034 5.07265H110.658L112.849 11.5536L115.295 5.07265H116.454L118.9 11.5536L121.091 5.07265H122.715H122.709ZM129.85 5.07265C132.704 5.07265 134.853 7.16661 134.853 9.77043C134.853 12.3743 132.704 14.5228 129.85 14.5228H126.656V5.07265H129.85ZM129.836 13.1186C131.999 13.1186 133.269 11.619 133.269 9.77043C133.269 7.92186 131.996 6.4768 129.836 6.4768H128.212V13.1186H129.836ZM140.495 13.1459H144.975V14.5228H138.942V5.07265H144.85V6.44954H140.498V9.09699H143.848V10.4466H140.498V13.1459H140.495ZM152.255 4.90906C153.879 4.90906 154.998 5.90696 155.463 6.88033L154.304 7.51561C153.811 6.71946 153.174 6.23414 152.255 6.23414C151.336 6.23414 150.686 6.74673 150.686 7.45017C150.686 8.11271 151.125 8.51624 152.07 8.85433L152.763 9.09699C154.727 9.78679 155.731 10.5966 155.731 12.0144C155.731 13.7566 153.993 14.7272 152.312 14.7272C150.632 14.7272 149.205 13.743 148.779 12.4042L149.995 11.8099C150.349 12.6742 151.111 13.3749 152.312 13.3749C153.303 13.3749 154.122 12.8759 154.122 12.0253C154.122 11.1201 153.485 10.7574 152.355 10.3512L151.676 10.1085C150.192 9.5823 149.148 8.86523 149.148 7.39564C149.148 5.92605 150.503 4.91178 152.255 4.91178V4.90906ZM166.194 14.5228L162.689 10.2694L161.348 11.7008V14.5228H159.75V5.07265H161.348V9.7159L165.671 5.07265H167.592L163.662 9.24422L168 14.5228H166.191H166.194Z" fill="white"/>
</svg>
